<svg viewBox="0 0 273 27" fill="none" xmlns="http://www.w3.org/2000/svg" role="img">
  <title>Mediahuella</title>
  <path d="M83.6539 -3.91424H80.0746V-5.37598H90.3189V19.7936C90.3189 23.3334 90.5436 24.4819 92.4202 24.4819C94.0753 24.4819 95.4172 22.9326 95.4172 19.7936H96.9838C96.9838 23.421 95.0153 26.0312 90.3189 26.0312C86.5181 26.0312 84.4577 24.2192 83.8753 21.5652C82.5777 24.3068 79.9383 26.0312 76.0048 26.0312C70.055 26.0312 66.2543 22.094 66.2543 16.5636C66.2543 11.077 70.055 7.2307 76.0048 7.2307C79.8055 7.2307 82.2678 8.73622 83.6539 11.2555V-3.91424ZM83.6539 16.6108C83.6539 11.8348 81.2393 8.78001 77.4794 8.78001C74.3939 8.78001 73.0078 10.9053 73.0078 16.567C73.0078 22.2725 74.3939 24.4853 77.4794 24.4853C81.2393 24.4853 83.6539 21.3429 83.6539 16.6108Z" fill="#FFC400"/>
  <path d="M108.74 19.7936C108.74 23.421 106.772 26.0312 102.075 26.0312C97.4232 26.0312 95.4104 23.421 95.4104 19.8374V9.13365H91.8311V7.67528H102.075V19.7969C102.075 23.3368 102.3 24.4853 104.177 24.4853C105.832 24.4853 107.174 22.936 107.174 19.7969H108.74V19.7936ZM98.765 -5.37598C101.18 -5.37598 102.835 -3.7391 102.835 -1.35114C102.835 1.08397 101.18 2.6737 98.765 2.6737C96.3061 2.6737 94.651 1.08061 94.651 -1.35114C94.651 -3.7391 96.3061 -5.37598 98.765 -5.37598Z" fill="#FFC400"/>
  <path d="M111.679 12.7173C111.679 14.179 110.739 15.1524 109.309 15.1524C107.834 15.1524 106.85 14.179 106.85 12.7173C107.79 8.73623 111.679 7.23407 115.974 7.23407C122.819 7.23407 125.145 11.0838 125.145 16.5232V19.797C125.145 23.3368 125.37 24.4853 127.202 24.4853C128.858 24.4853 130.199 22.936 130.199 19.797H131.766C131.766 23.4244 129.798 26.0346 125.145 26.0346C122.148 26.0346 120.18 24.9299 119.24 23.1583C118.433 24.7952 116.689 26.0346 113.069 26.0346C109.088 26.0346 105.866 24.5762 105.866 21.0802C105.866 17.9849 108.372 16.9206 115.259 15.5498L118.481 14.9301C118.392 10.198 117.81 8.78001 114.322 8.78001C113.382 8.78001 112.486 8.86758 111.683 9.08988V12.7173H111.679ZM115.214 17.0958C113.471 17.4932 112.531 18.0254 112.531 21.033C112.531 24.0845 113.828 24.4853 114.901 24.4853C118.079 24.4853 118.481 22.2725 118.481 19.8407V16.4323L115.214 17.0958Z" fill="#FFC400"/>
  <path d="M136.878 -3.91424H133.299V-5.37598H143.543V11.5216C144.616 8.86757 146.765 7.2307 150.296 7.2307C156.692 7.2307 158.484 11.168 159.512 16.5636L160.139 19.7936C160.854 23.3334 160.898 24.4819 162.645 24.4819C164.393 24.4819 165.731 22.9326 165.731 19.7936H167.298C167.298 23.421 165.329 26.0312 160.633 26.0312C155.98 26.0312 154.192 23.421 153.474 19.7936L152.847 16.5636C151.682 10.592 151.505 8.77664 148.508 8.77664C145.6 8.77664 143.543 11.8281 143.543 16.5636V25.5867H136.878V-3.91424Z" fill="#FFC400"/>
  <path d="M161.695 7.67529H171.94V16.6983C171.94 22.7575 172.88 24.4853 176.009 24.4853C180.035 24.4853 182.136 21.4338 182.136 16.6983V9.13367H178.56V7.67529H188.805V19.797C188.805 23.3368 189.029 24.4853 190.906 24.4853C192.561 24.4853 193.903 22.936 193.903 19.797H195.47C195.47 23.4244 193.501 26.0346 188.805 26.0346C185.048 26.0346 183.035 24.3102 182.409 21.7437C181.111 24.3977 178.56 26.0346 174.446 26.0346C168.095 26.0346 165.275 22.1849 165.275 16.7017V9.13367H161.695V7.67529Z" fill="#FFC400"/>
  <path d="M211.834 20.9893C210.404 24.0845 207.495 26.0313 202.887 26.0313C196.403 26.0313 192.108 22.094 192.108 16.4323C192.108 11.0804 196.001 7.23071 202.754 7.23071C209.106 7.23071 212.283 10.6358 212.283 15.5465V16.4323H198.909C199.086 22.3601 200.789 24.4853 204.277 24.4853C206.736 24.4853 209.375 23.4244 210.271 20.9893H211.834ZM205.527 14.883C205.482 10.2384 205.125 8.37922 202.618 8.37922C199.754 8.37922 198.95 10.7672 198.862 14.883H205.527Z" fill="#FFC400"/>
  <path d="M64.422 20.9893C62.9916 24.0845 60.0832 26.0313 55.4753 26.0313C48.9909 26.0313 44.6963 22.094 44.6963 16.4323C44.6963 11.0804 48.589 7.23071 55.3425 7.23071C61.6941 7.23071 64.8716 10.6358 64.8716 15.5465V16.4323H51.4974C51.6745 22.3601 53.3774 24.4853 56.8648 24.4853C59.3237 24.4853 61.9631 23.4244 62.8588 20.9893H64.422ZM58.1147 14.883C58.0704 10.2384 57.7128 8.37922 55.2062 8.37922C52.3421 8.37922 51.5383 10.7672 51.4498 14.883H58.1147Z" fill="#FFC400"/>
  <path d="M228.74 19.7936C228.74 23.421 226.771 26.0312 222.075 26.0312C217.423 26.0312 215.41 23.421 215.41 19.8374V-3.91424H211.83V-5.37598H222.075V19.7936C222.075 23.3334 222.3 24.4819 224.176 24.4819C225.831 24.4819 227.173 22.9326 227.173 19.7936H228.74Z" fill="#FFC400"/>
  <path d="M240.047 19.7936C240.047 23.421 238.078 26.0312 233.382 26.0312C228.729 26.0312 226.717 23.421 226.717 19.8374V-3.91424H223.137V-5.37598H233.382V19.7936C233.382 23.3334 233.606 24.4819 235.483 24.4819C237.138 24.4819 238.48 22.9326 238.48 19.7936H240.047Z" fill="#FFC400"/>
  <path d="M242.989 12.7173C242.989 14.179 242.049 15.1524 240.619 15.1524C239.144 15.1524 238.16 14.179 238.16 12.7173C239.1 8.73623 242.989 7.23407 247.284 7.23407C254.129 7.23407 256.455 11.0838 256.455 16.5232V19.797C256.455 23.3368 256.68 24.4853 258.512 24.4853C260.167 24.4853 261.509 22.936 261.509 19.797H263.076C263.076 23.4244 261.107 26.0346 256.455 26.0346C253.458 26.0346 251.49 24.9299 250.55 23.1583C249.743 24.7952 247.999 26.0346 244.379 26.0346C240.397 26.0346 237.176 24.5762 237.176 21.0802C237.176 17.9849 239.682 16.9206 246.568 15.5498L249.79 14.9301C249.702 10.198 249.119 8.78001 245.632 8.78001C244.692 8.78001 243.796 8.86758 242.992 9.08988V12.7173H242.989ZM246.521 17.0958C244.777 17.4932 243.837 18.0254 243.837 21.033C243.837 24.0845 245.135 24.4853 246.207 24.4853C249.385 24.4853 249.787 22.2725 249.787 19.8407V16.4323L246.521 17.0958Z" fill="#FFC400"/>
  <path d="M268.886 17.894C271.345 17.894 273 19.5309 273 21.9626C273 24.3977 271.345 26.0312 268.886 26.0312C266.427 26.0312 264.772 24.3944 264.772 21.9626C264.772 19.5309 266.427 17.894 268.886 17.894Z" fill="#FFC400"/>
  <path d="M3.57938 9.72309H0V8.26135H10.6496V11.4913C11.8586 9.19093 14.0485 7.82013 17.2702 7.82013C21.6534 7.82013 23.6695 10.2519 24.8751 13.7917C25.6823 10.1643 28.1412 7.82013 32.3915 7.82013C37.9836 7.82013 39.775 11.7574 40.8036 17.1564L41.4302 20.3864C42.0568 23.9262 42.5473 25.0781 43.9368 25.0781C45.6805 25.0781 47.0223 23.5288 47.0223 20.3864H48.5447C48.5447 24.0138 46.5762 26.624 41.924 26.624C37.2719 26.624 35.4805 24.0138 34.7653 20.3864L34.1386 17.1564C32.9739 11.1848 32.7968 9.36944 30.4707 9.36944C27.6985 9.36944 25.73 12.4209 25.73 17.1564L27.4737 26.1828H20.8054L19.0616 17.1564C17.8969 11.2286 17.7198 9.36944 15.3937 9.36944C12.6181 9.36944 10.6496 12.4209 10.6496 17.1564V26.1828H3.57938V9.72309Z" fill="#FFC400"/>
</svg>
