<svg xmlns="http://www.w3.org/2000/svg" viewBox="0 0 1000 756" class="mail-icon">
    <path d="M812.5,22.49H187.3A127,127,0,0,0,60.41,149.39V586.1A127,127,0,0,0,187.3,713H812.5A127,127,0,0,0,939.4,586.1V149.39A127,127,0,0,0,812.5,22.49Zm0,60.66A65.71,65.71,0,0,1,827.57,85L563.81,384.22a85.16,85.16,0,0,1-127.81,0L172.24,85a65.69,65.69,0,0,1,15.06-1.8Zm66.24,503a66.31,66.31,0,0,1-66.24,66.24H187.3a66.31,66.31,0,0,1-66.23-66.24V149.39a65.78,65.78,0,0,1,5-25.1l264.45,300a145.85,145.85,0,0,0,218.83,0l264.45-300a65.89,65.89,0,0,1,5,25.09Z"></path>
</svg>